HIERARCHY
ROOT root
{
	OFFSET	0	13.1	24.9
	CHANNELS 6  Xposition Yposition Zposition Xrotation Yrotation Zrotation
	JOINT spine_1
	{
		OFFSET	0	9.99999	0
		CHANNELS 3  Xrotation Yrotation Zrotation
		JOINT spine_2
		{
			OFFSET	0	112	-10
			CHANNELS 3  Xrotation Yrotation Zrotation
			JOINT spine_3
			{
				OFFSET	0	206.5	19.3
				CHANNELS 3  Xrotation Yrotation Zrotation
				JOINT spine_4
				{
					OFFSET	0	110.4	14.6
					CHANNELS 3  Xrotation Yrotation Zrotation
					JOINT neck_1
					{
						OFFSET	0	71.8	-50.3
						CHANNELS 3  Xrotation Yrotation Zrotation
						JOINT neck_2
						{
							OFFSET	0	86.2	-25.8
							CHANNELS 3  Xrotation Yrotation Zrotation
							JOINT head_ee
							{
								OFFSET	0	179.8	-8.7
								CHANNELS 3  Xrotation Yrotation Zrotation
								End Site
								{
									OFFSET	1	0	0
								}
							}
						}
					}
					JOINT left_clavicle
					{
						OFFSET	-43.2	22.4	-70.8
						CHANNELS 3  Xrotation Yrotation Zrotation
						JOINT left_shoulder
						{
							OFFSET	-93.9	-5.79999	48.7
							CHANNELS 3  Xrotation Yrotation Zrotation
							JOINT left_elbow
							{
								OFFSET	-291.4	-30.8	15.2
								CHANNELS 3  Xrotation Yrotation Zrotation
								JOINT left_lowarm_twist
								{
									OFFSET	-110.7	-3.89999	13.6
									CHANNELS 3  Xrotation Yrotation Zrotation
									JOINT left_hand
									{
										OFFSET	-110.7	-3.89999	13.6
										CHANNELS 3  Xrotation Yrotation Zrotation
										JOINT left_ee
										{
											OFFSET	-80.8	-5.10001	12.1
											CHANNELS 3  Xrotation Yrotation Zrotation
											End Site
											{
												OFFSET	1	0	0
											}
										}
									}
								}
							}
						}
					}
					JOINT right_clavicle
					{
						OFFSET	43.2	22.4	-70.8
						CHANNELS 3  Xrotation Yrotation Zrotation
						JOINT right_shoulder
						{
							OFFSET	93.9	-5.79999	48.7
							CHANNELS 3  Xrotation Yrotation Zrotation
							JOINT right_elbow
							{
								OFFSET	291.4	-30.8	15.2
								CHANNELS 3  Xrotation Yrotation Zrotation
								JOINT right_lowarm_twist
								{
									OFFSET	110.7	-3.89999	13.6
									CHANNELS 3  Xrotation Yrotation Zrotation
									JOINT right_hand
									{
										OFFSET	110.7	-3.89999	13.6
										CHANNELS 3  Xrotation Yrotation Zrotation
										JOINT right_ee
										{
											OFFSET	80.8	-5.10001	12.1
											CHANNELS 3  Xrotation Yrotation Zrotation
											End Site
											{
												OFFSET	1	0	0
											}
										}
									}
								}
							}
						}
					}
				}
			}
		}
	}
	JOINT left_hip
	{
		OFFSET	-82.8	-127.5	0.300001
		CHANNELS 3  Xrotation Yrotation Zrotation
		JOINT left_knee
		{
			OFFSET	-28.2	-396.7	2.2
			CHANNELS 3  Xrotation Yrotation Zrotation
			JOINT left_ankle
			{
				OFFSET	-11.7	-411.3	35.4
				CHANNELS 3  Xrotation Yrotation Zrotation
				JOINT left_toes
				{
					OFFSET	0	-60	-88.6
					CHANNELS 3  Xrotation Yrotation Zrotation
					JOINT left_foot_ee
					{
						OFFSET	-22.5	-16.5	-42.2
						CHANNELS 3  Xrotation Yrotation Zrotation
						End Site
						{
							OFFSET	1	0	0
						}
					}
				}
			}
		}
	}
	JOINT right_hip
	{
		OFFSET	82.8	-127.5	0.300001
		CHANNELS 3  Xrotation Yrotation Zrotation
		JOINT right_knee
		{
			OFFSET	28.2	-396.7	2.2
			CHANNELS 3  Xrotation Yrotation Zrotation
			JOINT right_ankle
			{
				OFFSET	11.7	-411.3	35.4
				CHANNELS 3  Xrotation Yrotation Zrotation
				JOINT right_toes
				{
					OFFSET	0	-60	-88.6
					CHANNELS 3  Xrotation Yrotation Zrotation
					JOINT right_foot_ee
					{
						OFFSET	22.5	-16.5	-42.2
						CHANNELS 3  Xrotation Yrotation Zrotation
						End Site
						{
							OFFSET	1	0	0
						}
					}
				}
			}
		}
	}
}
MOTION
Frames: 13
Frame Time: 0.02
2810.7444041 705.44 -1702.5230854 11.8771062103 56.6880124097 -0.671381408375 0.0563618 -0.397784 -3.51065 0.0632007 -0.173729 -3.52882 0.0771539 0.567721 -3.48723 0.0601864 0.0102112 -3.53307 -13.1443 11.0844 7.76535 -13.1473 16.268 10.7202 -0.0 0.0 -0.0 10.7444 8.57952 20.4344 -15.2954 -27.8672 49.0698 1.35678 -33.9036 0.413578 -22.867 -1.33935 2.57951 -1.65411 14.0061 -4.58436 -0.0 0.0 -0.0 2.61001 1.73337 -4.89895 -13.297 34.0231 -60.703 0.660031 18.1058 -0.105164 -20.4842 1.15282 -2.33792 0.258064 -23.2706 -10.8045 0.0 0.0 0.0 -6.00422 3.61921 -9.79809 6.36866 -0.314136 -0.925994 13.7299 -7.85094 -1.99737 27.4939 -0.0 -0.0 -0.0 0.0 -0.0 11.1489 7.9449 -10.7943 -46.191 0.906851 -6.84224 -9.94345 11.877 -1.58326 -24.0323 0.0 0.0 0.0 0.0 0.0 
2796.77969751 712.256 -1692.00071342 11.9090435934 60.1332351912 -0.4944451418 0.182804 -0.660381 -3.70989 0.19036 -0.423142 -3.74433 0.221795 0.358965 -3.75102 0.202243 -0.237511 -3.76065 -13.1582 11.1193 7.12609 -13.1997 16.7367 10.1336 -0.0 0.0 -0.0 10.9721 9.77809 20.7222 -14.6747 -28.7575 48.085 1.44454 -35.5847 0.463601 -25.7465 -1.57799 2.8609 -2.42502 12.0078 -10.4531 -0.0 0.0 -0.0 2.08147 1.59781 -3.87606 -13.2247 32.8146 -62.1215 0.540583 14.9916 -0.0711293 -19.1403 1.05211 -2.19835 0.489278 -25.2705 -12.8398 0.0 0.0 0.0 -6.15487 4.77843 -9.90696 6.98448 -0.349943 -1.0136 9.36279 -5.80507 -1.37294 26.1124 -0.0 -0.0 -0.0 0.0 -0.0 13.7988 8.58884 -13.397 -46.3971 0.923058 -6.8695 -13.3641 12.886 -2.15154 -23.919 0.0 0.0 0.0 0.0 0.0 
2782.75960032 710.79 -1674.53174484 10.9384417558 61.3870635788 0.377397564168 0.550673 -0.543385 -3.80702 0.558685 -0.300216 -3.83383 0.581722 0.474023 -3.81626 0.561428 -0.134173 -3.84321 -13.0957 12.179 7.70941 -13.1494 18.3862 11.0 -0.0 0.0 -0.0 10.8262 9.85806 20.4335 -14.2323 -30.1902 47.1641 1.48055 -36.2548 0.484725 -27.8744 -1.76331 3.06102 -2.94381 12.3251 -13.6481 -0.0 0.0 -0.0 2.04331 1.6059 -3.80081 -13.1899 31.9352 -62.1146 0.397619 11.143 -0.0387876 -18.0995 0.976395 -2.08867 0.604997 -26.9483 -14.052 0.0 0.0 0.0 -6.06178 6.38807 -9.67496 7.36906 -0.372783 -1.06812 9.38365 -4.86538 -1.37059 25.6143 -0.0 -0.0 -0.0 0.0 -0.0 15.5026 6.63041 -12.7381 -45.9815 0.890469 -6.81447 -17.752 13.4051 -2.87817 -24.6452 0.0 0.0 0.0 0.0 0.0 
2746.24224458 707.214 -1647.46628109 12.372206808 67.430306321 -1.48869330146 0.882736 -0.870188 -4.16401 0.892178 -0.603699 -4.21082 0.939614 0.22502 -4.24786 0.914721 -0.44806 -4.23018 -12.3852 11.9409 5.72245 -12.5076 19.0555 8.94293 -0.0 0.0 -0.0 10.9065 11.0643 20.4244 -11.8889 -31.5568 47.5856 1.69035 -39.9378 0.614238 -32.7353 -2.21375 3.49161 -3.70062 10.8924 -19.4839 -0.0 0.0 -0.0 0.316936 -0.174117 -0.630669 -16.2297 30.008 -63.1135 0.349865 9.83261 -0.0300944 -16.3171 0.851412 -1.89773 0.584553 -29.0983 -14.6108 0.0 0.0 0.0 -8.59265 8.69691 -7.5512 7.56199 -0.38438 -1.09541 9.10946 -3.60398 -1.32556 24.2689 -0.0 -0.0 -0.0 0.0 -0.0 23.7197 10.8763 -15.0844 -44.1886 0.754517 -6.57445 -23.1595 11.5542 -3.7121 -30.1746 0.0 0.0 0.0 0.0 0.0 
2730.8245514 705.716 -1628.84923285 13.4851919542 68.2187099365 -2.46050752063 0.923924 -0.692752 -4.29066 0.934066 -0.418584 -4.32596 0.968493 0.427341 -4.3251 0.942492 -0.260429 -4.33833 -14.0534 12.0311 6.38676 -14.2175 19.0927 9.88402 -0.0 0.0 -0.0 10.9074 11.8527 20.3149 -10.7647 -33.0472 48.6274 1.7644 -41.1508 0.662375 -35.29 -2.46475 3.70228 -3.7784 9.31869 -20.9321 -0.0 0.0 -0.0 0.111837 0.246549 -0.186734 -17.4822 28.8061 -62.6578 0.23823 6.73064 -0.0140089 -14.523 0.731694 -1.70176 0.737527 -28.6793 -15.3408 0.0 0.0 0.0 -9.07499 10.6849 -7.23845 7.19038 -0.362126 -1.04281 8.35632 -1.80093 -1.212 24.7096 -0.0 -0.0 -0.0 0.0 -0.0 23.9996 10.0741 -13.8499 -37.281 0.302912 -5.61387 -22.832 12.4775 -3.68205 -30.8239 0.0 0.0 0.0 0.0 0.0 
2720.87542463 705.302 -1611.61278387 13.7273069693 69.7304590566 -2.95771089525 1.06744 -0.548781 -4.4874 1.0786 -0.262422 -4.51316 1.10163 0.606944 -4.47992 1.07365 -0.107444 -4.51949 -13.5333 12.7253 7.37022 -13.6552 19.727 10.9337 -0.0 0.0 -0.0 10.7157 13.1074 19.7799 -7.83094 -33.925 51.5881 1.89199 -43.1399 0.748001 -39.8356 -2.9337 4.04883 -3.91402 11.7309 -20.4432 -0.0 0.0 -0.0 -0.0246356 0.657052 0.126038 -19.3097 27.1883 -62.1949 0.217646 6.15375 -0.0116992 -14.0477 0.701017 -1.64924 0.532011 -29.1514 -14.3344 0.0 0.0 0.0 -8.9215 10.9845 -6.70378 5.92369 -0.288853 -0.86246 9.47858 -5.58771 -1.38805 24.5017 -0.0 -0.0 -0.0 0.0 -0.0 24.5836 12.8736 -12.6862 -32.5336 0.0612852 -4.92593 -18.868 14.227 -3.07891 -35.8002 0.0 0.0 0.0 0.0 0.0 
2712.75031881 704.87 -1601.42434133 13.8042426834 70.2101705305 -3.17372829482 0.865573 -0.4739 -4.69427 0.877811 -0.174569 -4.71486 0.895243 0.749042 -4.65838 0.864973 0.00478986 -4.71808 -13.1961 12.4481 6.14078 -13.3584 19.8972 9.63644 -0.0 0.0 -0.0 10.6016 13.6979 19.4864 -6.04918 -34.8105 52.7537 1.95057 -44.012 0.788382 -43.1476 -3.29196 4.27745 -3.92998 10.081 -21.5359 -0.0 0.0 -0.0 -0.128174 1.07513 0.377611 -20.3084 27.5831 -61.4361 0.210559 5.95482 -0.0109516 -13.212 0.648134 -1.55626 0.448559 -29.1522 -13.8707 0.0 0.0 0.0 -8.78953 12.2001 -6.09885 4.96484 -0.236055 -0.724909 11.0359 -6.20886 -1.61091 24.2953 -0.0 -0.0 -0.0 0.0 -0.0 24.9184 12.4797 -11.9528 -25.6149 -0.186898 -3.89377 -13.8165 14.609 -2.25327 -36.832 0.0 0.0 0.0 0.0 0.0 
2703.17691624 702.161 -1599.88882371 12.6574517073 71.6091180461 -2.15460627638 0.826332 -0.656076 -4.68107 0.838447 -0.357217 -4.71323 0.871333 0.570953 -4.69219 0.840666 -0.176401 -4.72343 -13.1306 12.9043 6.84893 -13.2747 20.317 10.4313 -0.0 0.0 -0.0 10.6935 14.6172 19.5112 -3.66655 -34.5982 53.6729 2.10968 -46.2569 0.901177 -45.4593 -3.54957 4.42461 -3.824 12.0421 -19.6464 -0.0 0.0 -0.0 -0.104029 0.930931 0.313162 -20.9406 25.2052 -61.2246 0.235719 6.66032 -0.013716 -11.7651 0.559818 -1.39354 0.67729 -27.3169 -14.5812 0.0 0.0 0.0 -8.812 12.1444 -5.95111 5.54109 -0.267509 -0.807679 11.8222 -5.2863 -1.71375 23.7526 -0.0 -0.0 -0.0 0.0 -0.0 25.5982 13.2166 -11.6386 -18.7792 -0.308168 -2.85247 -9.11766 14.1983 -1.47358 -39.277 0.0 0.0 0.0 0.0 0.0 
2695.33129606 699.347 -1595.32649222 11.609448181 71.6137322833 -1.50681735994 0.758338 -0.455683 -4.73203 0.770777 -0.153995 -4.75138 0.786971 0.785325 -4.6887 0.756308 0.0358474 -4.75374 -13.5532 13.472 7.93873 -13.6829 20.8105 11.7087 -0.0 0.0 -0.0 10.69 15.1823 19.4158 -1.87752 -34.786 55.0336 2.20611 -47.5338 0.971584 -47.132 -3.73955 4.52456 -3.99696 11.4767 -21.1633 -0.0 0.0 -0.0 0.321851 0.178108 -0.600178 -22.265 24.4289 -60.202 0.255893 7.22456 -0.0161545 -11.4801 0.54291 -1.36123 0.590892 -28.1752 -14.3593 0.0 0.0 0.0 -8.55379 12.1589 -5.43307 4.11652 -0.191275 -0.602506 12.943 -4.90931 -1.86501 23.7906 -0.0 -0.0 -0.0 0.0 -0.0 25.4389 13.5974 -11.3772 -12.3117 -0.308013 -1.86069 -9.48994 13.8351 -1.53056 -40.1923 0.0 0.0 0.0 0.0 0.0 
2685.55050415 688.937 -1598.93925891 12.6858636025 71.0945769127 -3.2259731867 0.512928 -0.554798 -4.64723 0.524901 -0.258289 -4.67304 0.550251 0.68642 -4.62966 0.520357 -0.0525309 -4.67986 -15.0655 13.9555 9.5375 -15.1919 21.0977 13.6481 -0.0 0.0 -0.0 10.4575 14.7965 19.0649 -0.663789 -34.4375 55.505 2.48074 -50.8552 1.17955 -47.394 -3.76958 4.53971 -3.6478 11.7675 -18.6185 -0.0 0.0 -0.0 0.355223 0.466987 -0.631979 -22.5497 24.419 -59.6422 0.233104 6.58709 -0.0134143 -10.9348 0.511012 -1.29919 1.0839 -29.2789 -17.4722 0.0 0.0 0.0 -9.38105 13.567 -4.39901 3.40803 -0.155271 -0.499791 17.6564 -8.38966 -2.53032 24.9366 -0.0 -0.0 -0.0 0.0 -0.0 26.2562 15.0908 -9.0211 -3.51082 -0.128546 -0.523384 -1.57543 10.5029 -0.244689 -39.6157 0.0 0.0 0.0 0.0 0.0 
2668.25819883 683.005 -1601.08820982 9.45142073771 71.1816234512 -0.784496652542 0.456628 -0.510949 -4.66484 0.468704 -0.213411 -4.68783 0.49057 0.738347 -4.63436 0.460612 -0.00199064 -4.69268 -12.9067 14.6504 9.81241 -12.9351 21.7558 13.6958 -0.0 0.0 -0.0 10.7519 16.4534 19.315 -0.138367 -33.1446 55.846 2.69553 -53.161 1.34886 -51.9122 -4.2975 4.77916 -3.73349 9.7379 -20.3787 -0.0 0.0 -0.0 0.523086 0.321683 -0.972752 -24.1024 23.322 -58.9289 0.301448 8.49332 -0.0223839 -10.5222 0.487269 -1.25205 1.19698 -29.4529 -18.1619 0.0 0.0 0.0 -9.62586 12.868 -3.21706 2.96671 -0.133489 -0.435593 20.3737 -9.10129 -2.89114 25.2214 -0.0 -0.0 -0.0 0.0 -0.0 27.0829 15.391 -8.44703 0.841275 0.0355553 0.124201 -0.68739 13.2594 -0.108443 -35.8626 0.0 0.0 0.0 0.0 0.0 
2561.17650796 659.055 -1603.28192719 2.77283516163 77.9521610124 3.348064037 -0.192913 -0.629968 -3.97943 -0.184183 -0.375679 -4.01138 -0.152772 0.486955 -3.99942 -0.175056 -0.150261 -4.02611 -4.86219 14.1199 6.55348 -4.67956 21.0635 9.0613 -0.0 0.0 -0.0 9.46568 14.6546 17.3461 -6.90051 -31.2742 56.0429 3.82226 -62.1427 2.30367 -63.9736 -5.78065 5.2076 -2.48643 4.89858 -14.4431 -0.0 0.0 -0.0 1.90972 -3.56877 -3.97718 -23.2752 23.1605 -59.7897 0.538607 14.9393 -0.0706192 -7.21521 0.309389 -0.868337 2.70361 -29.9731 -27.1639 0.0 0.0 0.0 -12.9521 11.5434 -1.46693 0.769183 -0.0324372 -0.113577 38.1423 -12.4955 -4.92431 25.2598 -0.0 -0.0 -0.0 0.0 -0.0 31.2763 15.8463 -8.38103 -3.8795 -0.140177 -0.578769 -8.60295 11.9233 -1.36743 -12.9742 0.0 0.0 0.0 0.0 0.0 
2545.97555723 658.906 -1610.29623084 1.50785394692 78.6519469442 4.67480103387 -0.0874446 -0.428088 -3.79738 -0.079443 -0.185764 -3.81689 -0.0629665 0.625514 -3.76993 -0.0827948 0.0227263 -3.82133 -2.79774 14.2006 5.6072 -2.55343 21.4548 7.81554 -0.0 0.0 -0.0 9.89825 15.7805 17.9449 -8.38324 -31.3047 55.8258 3.79615 -61.9804 2.28061 -65.7204 -6.00152 5.24336 -2.20693 3.77764 -13.0958 -0.0 0.0 -0.0 2.23527 -2.94979 -4.53643 -22.3577 22.7883 -61.3814 0.487746 13.5834 -0.0580889 -6.88749 0.292977 -0.829773 2.91325 -30.1289 -28.4892 0.0 0.0 0.0 -13.4667 11.833 -1.77393 2.27104 -0.100161 -0.334066 36.7489 -12.6932 -4.79969 25.1225 -0.0 -0.0 -0.0 0.0 -0.0 31.0923 15.8493 -8.07852 -4.43569 -0.157047 -0.66246 -11.0328 12.5844 -1.76768 -11.7105 0.0 0.0 0.0 0.0 0.0 
